<?xml version="1.0" encoding="utf-8"?>
<!-- Generator: Adobe Illustrator 16.0.0, SVG Export Plug-In . SVG Version: 6.00 Build 0)  -->
<!DOCTYPE svg PUBLIC "-//W3C//DTD SVG 1.1//EN" "http://www.w3.org/Graphics/SVG/1.1/DTD/svg11.dtd">
<svg version="1.1" id="Layer_1" xmlns="http://www.w3.org/2000/svg" xmlns:xlink="http://www.w3.org/1999/xlink" x="0px" y="0px"
	 width="87.973px" height="60px" viewBox="0 0 87.973 60" enable-background="new 0 0 87.973 60" xml:space="preserve">
<circle fill="#70DB9B" cx="43.5" cy="29.166" r="24.833"/>
<path fill="#FFFFFF" d="M60.9,23.141l-3.35,3.349l0,0L44.777,39.263c-0.715,0.711-1.648,1.065-2.584,1.065
	c-0.896,0-1.79-0.325-2.496-0.974l-9.329-9.31c-1.437-1.431-1.437-3.759,0-5.19c0.717-0.718,1.656-1.077,2.597-1.077
	c0.938,0,1.879,0.359,2.594,1.077l6.62,6.619l13.525-13.527c0.149-0.151,0.315-0.276,0.482-0.395c0.073-0.051,0.146-0.1,0.221-0.143
	c0.079-0.049,0.163-0.089,0.245-0.129c0.227-0.111,0.462-0.205,0.702-0.27l0,0c0.311-0.083,0.628-0.14,0.946-0.14
	c0.94,0,1.882,0.359,2.6,1.075C62.332,19.381,62.332,21.707,60.9,23.141z"/>
</svg>
